<?xml version="1.0" encoding="UTF-8" standalone="no"?>
<!DOCTYPE svg PUBLIC "-//W3C//DTD SVG 1.1//EN"
 "http://www.w3.org/Graphics/SVG/1.1/DTD/svg11.dtd">
<!-- Generated by graphviz version 2.40.1 (20161225.0304)
 -->
<!-- Title: dependencies Pages: 1 -->
<svg width="722pt" height="211pt"
 viewBox="0.00 0.00 722.00 211.00" xmlns="http://www.w3.org/2000/svg" xmlns:xlink="http://www.w3.org/1999/xlink">
<g id="graph0" class="graph" transform="scale(1 1) rotate(0) translate(4 207)">
<title>dependencies</title>
<polygon fill="#ffffff" stroke="transparent" points="-4,4 -4,-207 718,-207 718,4 -4,4"/>
<text text-anchor="start" x="336.0091" y="-42.4" font-family="sans-serif" font-weight="bold" font-size="14.00" fill="#000000">Legend</text>
<polygon fill="#ffffb3" stroke="transparent" points="123,-10 123,-30 143,-30 143,-10 123,-10"/>
<text text-anchor="start" x="146.629" y="-15.4" font-family="sans-serif" font-size="14.00" fill="#000000"> &#160;Declarations</text>
<polygon fill="#8dd3c7" stroke="transparent" points="236,-10 236,-30 256,-30 256,-10 236,-10"/>
<text text-anchor="start" x="259.7251" y="-15.4" font-family="sans-serif" font-size="14.00" fill="#000000"> &#160;Module</text>
<polygon fill="#80b1d3" stroke="transparent" points="322,-10 322,-30 342,-30 342,-10 322,-10"/>
<text text-anchor="start" x="345.7812" y="-15.4" font-family="sans-serif" font-size="14.00" fill="#000000"> &#160;Bootstrap</text>
<polygon fill="#fdb462" stroke="transparent" points="419,-10 419,-30 439,-30 439,-10 419,-10"/>
<text text-anchor="start" x="442.6732" y="-15.4" font-family="sans-serif" font-size="14.00" fill="#000000"> &#160;Providers</text>
<polygon fill="#fb8072" stroke="transparent" points="515,-10 515,-30 535,-30 535,-10 515,-10"/>
<text text-anchor="start" x="538.7258" y="-15.4" font-family="sans-serif" font-size="14.00" fill="#000000"> &#160;Exports</text>
<g id="clust1" class="cluster">
<title>cluster_AppModule</title>
<polygon fill="none" stroke="#000000" stroke-dasharray="1,5" points="8,-70 8,-195 706,-195 706,-70 8,-70"/>
</g>
<g id="clust3" class="cluster">
<title>cluster_AppModule_imports</title>
<polygon fill="none" stroke="#000000" points="154,-78 154,-130 698,-130 698,-78 154,-78"/>
</g>
<g id="clust6" class="cluster">
<title>cluster_AppModule_providers</title>
<polygon fill="none" stroke="#000000" points="16,-78 16,-130 146,-130 146,-78 16,-78"/>
</g>
<!-- AuthModule -->
<g id="node1" class="node">
<title>AuthModule</title>
<polygon fill="#8dd3c7" stroke="#000000" points="689.5482,-122 686.5482,-126 665.5482,-126 662.5482,-122 602.4518,-122 602.4518,-86 689.5482,-86 689.5482,-122"/>
<text text-anchor="middle" x="646" y="-99.8" font-family="Times,serif" font-size="14.00" fill="#000000">AuthModule</text>
</g>
<!-- AppModule -->
<g id="node6" class="node">
<title>AppModule</title>
<polygon fill="#8dd3c7" stroke="#000000" points="416.6571,-187 413.6571,-191 392.6571,-191 389.6571,-187 333.3429,-187 333.3429,-151 416.6571,-151 416.6571,-187"/>
<text text-anchor="middle" x="375" y="-164.8" font-family="Times,serif" font-size="14.00" fill="#000000">AppModule</text>
</g>
<!-- AuthModule&#45;&gt;AppModule -->
<g id="edge1" class="edge">
<title>AuthModule&#45;&gt;AppModule</title>
<path fill="none" stroke="#000000" d="M646,-122.2843C646,-143.3211 646,-175 646,-175 646,-175 426.7498,-175 426.7498,-175"/>
<polygon fill="#000000" stroke="#000000" points="426.7499,-171.5001 416.7498,-175 426.7498,-178.5001 426.7499,-171.5001"/>
</g>
<!-- CatsModule -->
<g id="node2" class="node">
<title>CatsModule</title>
<polygon fill="#8dd3c7" stroke="#000000" points="584.4373,-122 581.4373,-126 560.4373,-126 557.4373,-122 499.5627,-122 499.5627,-86 584.4373,-86 584.4373,-122"/>
<text text-anchor="middle" x="542" y="-99.8" font-family="Times,serif" font-size="14.00" fill="#000000">CatsModule</text>
</g>
<!-- CatsModule&#45;&gt;AppModule -->
<g id="edge2" class="edge">
<title>CatsModule&#45;&gt;AppModule</title>
<path fill="none" stroke="#000000" d="M542,-122.0225C542,-139.3734 542,-163 542,-163 542,-163 426.7104,-163 426.7104,-163"/>
<polygon fill="#000000" stroke="#000000" points="426.7104,-159.5001 416.7104,-163 426.7103,-166.5001 426.7104,-159.5001"/>
</g>
<!-- HeroesModule -->
<g id="node3" class="node">
<title>HeroesModule</title>
<polygon fill="#8dd3c7" stroke="#000000" points="481.691,-122 478.691,-126 457.691,-126 454.691,-122 382.309,-122 382.309,-86 481.691,-86 481.691,-122"/>
<text text-anchor="middle" x="432" y="-99.8" font-family="Times,serif" font-size="14.00" fill="#000000">HeroesModule</text>
</g>
<!-- HeroesModule&#45;&gt;AppModule -->
<g id="edge3" class="edge">
<title>HeroesModule&#45;&gt;AppModule</title>
<path fill="none" stroke="#000000" d="M399.6164,-122.1061C399.6164,-122.1061 399.6164,-140.991 399.6164,-140.991"/>
<polygon fill="#000000" stroke="#000000" points="396.1165,-140.9909 399.6164,-150.991 403.1165,-140.991 396.1165,-140.9909"/>
</g>
<!-- PhotoModule -->
<g id="node4" class="node">
<title>PhotoModule</title>
<polygon fill="#8dd3c7" stroke="#000000" points="364.2233,-122 361.2233,-126 340.2233,-126 337.2233,-122 271.7767,-122 271.7767,-86 364.2233,-86 364.2233,-122"/>
<text text-anchor="middle" x="318" y="-99.8" font-family="Times,serif" font-size="14.00" fill="#000000">PhotoModule</text>
</g>
<!-- PhotoModule&#45;&gt;AppModule -->
<g id="edge4" class="edge">
<title>PhotoModule&#45;&gt;AppModule</title>
<path fill="none" stroke="#000000" d="M348.6417,-122.1061C348.6417,-122.1061 348.6417,-140.991 348.6417,-140.991"/>
<polygon fill="#000000" stroke="#000000" points="345.1417,-140.9909 348.6417,-150.991 352.1417,-140.991 345.1417,-140.9909"/>
</g>
<!-- UsersModule -->
<g id="node5" class="node">
<title>UsersModule</title>
<polygon fill="#8dd3c7" stroke="#000000" points="253.9218,-122 250.9218,-126 229.9218,-126 226.9218,-122 162.0782,-122 162.0782,-86 253.9218,-86 253.9218,-122"/>
<text text-anchor="middle" x="208" y="-99.8" font-family="Times,serif" font-size="14.00" fill="#000000">UsersModule</text>
</g>
<!-- UsersModule&#45;&gt;AppModule -->
<g id="edge5" class="edge">
<title>UsersModule&#45;&gt;AppModule</title>
<path fill="none" stroke="#000000" d="M208,-122.0225C208,-139.3734 208,-163 208,-163 208,-163 323.2896,-163 323.2896,-163"/>
<polygon fill="#000000" stroke="#000000" points="323.2897,-166.5001 333.2896,-163 323.2896,-159.5001 323.2897,-166.5001"/>
</g>
<!-- AppService -->
<g id="node7" class="node">
<title>AppService</title>
<ellipse fill="#fdb462" stroke="#000000" cx="81" cy="-104" rx="56.7406" ry="18"/>
<text text-anchor="middle" x="81" y="-99.8" font-family="Times,serif" font-size="14.00" fill="#000000">AppService</text>
</g>
<!-- AppService&#45;&gt;AppModule -->
<g id="edge6" class="edge">
<title>AppService&#45;&gt;AppModule</title>
<path fill="none" stroke="#000000" d="M81,-122.2843C81,-143.3211 81,-175 81,-175 81,-175 323.1892,-175 323.1892,-175"/>
<polygon fill="#000000" stroke="#000000" points="323.1892,-178.5001 333.1892,-175 323.1892,-171.5001 323.1892,-178.5001"/>
</g>
</g>
</svg>
