<?xml version="1.0" encoding="UTF-8" standalone="no"?>
<!DOCTYPE svg PUBLIC "-//W3C//DTD SVG 1.1//EN"
 "http://www.w3.org/Graphics/SVG/1.1/DTD/svg11.dtd">
<!-- Generated by graphviz version 2.40.1 (20161225.0304)
 -->
<!-- Title: dependencies Pages: 1 -->
<svg width="638pt" height="211pt"
 viewBox="0.00 0.00 638.00 211.00" xmlns="http://www.w3.org/2000/svg" xmlns:xlink="http://www.w3.org/1999/xlink">
<g id="graph0" class="graph" transform="scale(1 1) rotate(0) translate(4 207)">
<title>dependencies</title>
<polygon fill="#ffffff" stroke="transparent" points="-4,4 -4,-207 634,-207 634,4 -4,4"/>
<text text-anchor="start" x="294.0091" y="-42.4" font-family="sans-serif" font-weight="bold" font-size="14.00" fill="#000000">Legend</text>
<polygon fill="#ffffb3" stroke="transparent" points="81,-10 81,-30 101,-30 101,-10 81,-10"/>
<text text-anchor="start" x="104.629" y="-15.4" font-family="sans-serif" font-size="14.00" fill="#000000"> &#160;Declarations</text>
<polygon fill="#8dd3c7" stroke="transparent" points="194,-10 194,-30 214,-30 214,-10 194,-10"/>
<text text-anchor="start" x="217.7251" y="-15.4" font-family="sans-serif" font-size="14.00" fill="#000000"> &#160;Module</text>
<polygon fill="#80b1d3" stroke="transparent" points="280,-10 280,-30 300,-30 300,-10 280,-10"/>
<text text-anchor="start" x="303.7812" y="-15.4" font-family="sans-serif" font-size="14.00" fill="#000000"> &#160;Bootstrap</text>
<polygon fill="#fdb462" stroke="transparent" points="377,-10 377,-30 397,-30 397,-10 377,-10"/>
<text text-anchor="start" x="400.6732" y="-15.4" font-family="sans-serif" font-size="14.00" fill="#000000"> &#160;Providers</text>
<polygon fill="#fb8072" stroke="transparent" points="473,-10 473,-30 493,-30 493,-10 473,-10"/>
<text text-anchor="start" x="496.7258" y="-15.4" font-family="sans-serif" font-size="14.00" fill="#000000"> &#160;Exports</text>
<g id="clust1" class="cluster">
<title>cluster_AppModule</title>
<polygon fill="none" stroke="#000000" stroke-dasharray="1,5" points="8,-70 8,-195 622,-195 622,-70 8,-70"/>
</g>
<g id="clust3" class="cluster">
<title>cluster_AppModule_imports</title>
<polygon fill="none" stroke="#000000" points="286,-78 286,-130 614,-130 614,-78 286,-78"/>
</g>
<g id="clust6" class="cluster">
<title>cluster_AppModule_providers</title>
<polygon fill="none" stroke="#000000" points="16,-78 16,-130 278,-130 278,-78 16,-78"/>
</g>
<!-- CatsModule -->
<g id="node1" class="node">
<title>CatsModule</title>
<polygon fill="#8dd3c7" stroke="#000000" points="606.4373,-122 603.4373,-126 582.4373,-126 579.4373,-122 521.5627,-122 521.5627,-86 606.4373,-86 606.4373,-122"/>
<text text-anchor="middle" x="564" y="-99.8" font-family="Times,serif" font-size="14.00" fill="#000000">CatsModule</text>
</g>
<!-- AppModule -->
<g id="node4" class="node">
<title>AppModule</title>
<polygon fill="#8dd3c7" stroke="#000000" points="381.6571,-187 378.6571,-191 357.6571,-191 354.6571,-187 298.3429,-187 298.3429,-151 381.6571,-151 381.6571,-187"/>
<text text-anchor="middle" x="340" y="-164.8" font-family="Times,serif" font-size="14.00" fill="#000000">AppModule</text>
</g>
<!-- CatsModule&#45;&gt;AppModule -->
<g id="edge1" class="edge">
<title>CatsModule&#45;&gt;AppModule</title>
<path fill="none" stroke="#000000" d="M564,-122.2843C564,-143.3211 564,-175 564,-175 564,-175 391.8699,-175 391.8699,-175"/>
<polygon fill="#000000" stroke="#000000" points="391.87,-171.5001 381.8699,-175 391.8699,-178.5001 391.87,-171.5001"/>
</g>
<!-- HeroesModule -->
<g id="node2" class="node">
<title>HeroesModule</title>
<polygon fill="#8dd3c7" stroke="#000000" points="503.691,-122 500.691,-126 479.691,-126 476.691,-122 404.309,-122 404.309,-86 503.691,-86 503.691,-122"/>
<text text-anchor="middle" x="454" y="-99.8" font-family="Times,serif" font-size="14.00" fill="#000000">HeroesModule</text>
</g>
<!-- HeroesModule&#45;&gt;AppModule -->
<g id="edge2" class="edge">
<title>HeroesModule&#45;&gt;AppModule</title>
<path fill="none" stroke="#000000" d="M454,-122.0225C454,-139.3734 454,-163 454,-163 454,-163 391.8021,-163 391.8021,-163"/>
<polygon fill="#000000" stroke="#000000" points="391.8021,-159.5001 381.8021,-163 391.802,-166.5001 391.8021,-159.5001"/>
</g>
<!-- PhotoModule -->
<g id="node3" class="node">
<title>PhotoModule</title>
<polygon fill="#8dd3c7" stroke="#000000" points="386.2233,-122 383.2233,-126 362.2233,-126 359.2233,-122 293.7767,-122 293.7767,-86 386.2233,-86 386.2233,-122"/>
<text text-anchor="middle" x="340" y="-99.8" font-family="Times,serif" font-size="14.00" fill="#000000">PhotoModule</text>
</g>
<!-- PhotoModule&#45;&gt;AppModule -->
<g id="edge3" class="edge">
<title>PhotoModule&#45;&gt;AppModule</title>
<path fill="none" stroke="#000000" d="M340,-122.1061C340,-122.1061 340,-140.991 340,-140.991"/>
<polygon fill="#000000" stroke="#000000" points="336.5001,-140.9909 340,-150.991 343.5001,-140.991 336.5001,-140.9909"/>
</g>
<!-- AppService -->
<g id="node5" class="node">
<title>AppService</title>
<ellipse fill="#fdb462" stroke="#000000" cx="213" cy="-104" rx="56.7406" ry="18"/>
<text text-anchor="middle" x="213" y="-99.8" font-family="Times,serif" font-size="14.00" fill="#000000">AppService</text>
</g>
<!-- AppService&#45;&gt;AppModule -->
<g id="edge4" class="edge">
<title>AppService&#45;&gt;AppModule</title>
<path fill="none" stroke="#000000" d="M213,-122.0225C213,-139.3734 213,-163 213,-163 213,-163 288.0635,-163 288.0635,-163"/>
<polygon fill="#000000" stroke="#000000" points="288.0635,-166.5001 298.0635,-163 288.0634,-159.5001 288.0635,-166.5001"/>
</g>
<!-- CatsService -->
<g id="node6" class="node">
<title>CatsService</title>
<ellipse fill="#fdb462" stroke="#000000" cx="81" cy="-104" rx="57.3166" ry="18"/>
<text text-anchor="middle" x="81" y="-99.8" font-family="Times,serif" font-size="14.00" fill="#000000">CatsService</text>
</g>
<!-- CatsService&#45;&gt;AppModule -->
<g id="edge5" class="edge">
<title>CatsService&#45;&gt;AppModule</title>
<path fill="none" stroke="#000000" d="M81,-122.2843C81,-143.3211 81,-175 81,-175 81,-175 288.0993,-175 288.0993,-175"/>
<polygon fill="#000000" stroke="#000000" points="288.0994,-178.5001 298.0993,-175 288.0993,-171.5001 288.0994,-178.5001"/>
</g>
</g>
</svg>
