<?xml version="1.0" encoding="UTF-8" standalone="no"?>
<!DOCTYPE svg PUBLIC "-//W3C//DTD SVG 1.1//EN"
 "http://www.w3.org/Graphics/SVG/1.1/DTD/svg11.dtd">
<!-- Generated by graphviz version 2.40.1 (20161225.0304)
 -->
<!-- Title: dependencies Pages: 1 -->
<svg width="740pt" height="279pt"
 viewBox="0.00 0.00 740.00 279.00" xmlns="http://www.w3.org/2000/svg" xmlns:xlink="http://www.w3.org/1999/xlink">
<g id="graph0" class="graph" transform="scale(1 1) rotate(0) translate(4 275)">
<title>dependencies</title>
<polygon fill="#ffffff" stroke="transparent" points="-4,4 -4,-275 736,-275 736,4 -4,4"/>
<text text-anchor="start" x="345.0091" y="-42.4" font-family="sans-serif" font-weight="bold" font-size="14.00" fill="#000000">Legend</text>
<polygon fill="#ffffb3" stroke="transparent" points="132,-10 132,-30 152,-30 152,-10 132,-10"/>
<text text-anchor="start" x="155.629" y="-15.4" font-family="sans-serif" font-size="14.00" fill="#000000"> &#160;Declarations</text>
<polygon fill="#8dd3c7" stroke="transparent" points="245,-10 245,-30 265,-30 265,-10 245,-10"/>
<text text-anchor="start" x="268.7251" y="-15.4" font-family="sans-serif" font-size="14.00" fill="#000000"> &#160;Module</text>
<polygon fill="#80b1d3" stroke="transparent" points="331,-10 331,-30 351,-30 351,-10 331,-10"/>
<text text-anchor="start" x="354.7812" y="-15.4" font-family="sans-serif" font-size="14.00" fill="#000000"> &#160;Bootstrap</text>
<polygon fill="#fdb462" stroke="transparent" points="428,-10 428,-30 448,-30 448,-10 428,-10"/>
<text text-anchor="start" x="451.6732" y="-15.4" font-family="sans-serif" font-size="14.00" fill="#000000"> &#160;Providers</text>
<polygon fill="#fb8072" stroke="transparent" points="524,-10 524,-30 544,-30 544,-10 524,-10"/>
<text text-anchor="start" x="547.7258" y="-15.4" font-family="sans-serif" font-size="14.00" fill="#000000"> &#160;Exports</text>
<g id="clust1" class="cluster">
<title>cluster_AppModule</title>
<polygon fill="none" stroke="#000000" stroke-dasharray="1,5" points="8,-70 8,-263 384,-263 384,-70 8,-70"/>
</g>
<g id="clust3" class="cluster">
<title>cluster_AppModule_imports</title>
<polygon fill="none" stroke="#000000" points="48,-146 48,-198 376,-198 376,-146 48,-146"/>
</g>
<g id="clust6" class="cluster">
<title>cluster_AppModule_providers</title>
<polygon fill="none" stroke="#000000" points="16,-78 16,-130 278,-130 278,-78 16,-78"/>
</g>
<g id="clust13" class="cluster">
<title>cluster_HeroesModule</title>
<polygon fill="none" stroke="#000000" stroke-dasharray="1,5" points="392,-70 392,-138 558,-138 558,-70 392,-70"/>
</g>
<g id="clust18" class="cluster">
<title>cluster_HeroesModule_providers</title>
<polygon fill="none" stroke="#000000" points="400,-78 400,-130 550,-130 550,-78 400,-78"/>
</g>
<g id="clust19" class="cluster">
<title>cluster_PhotoModule</title>
<polygon fill="none" stroke="#000000" stroke-dasharray="1,5" points="566,-70 566,-138 724,-138 724,-70 566,-70"/>
</g>
<g id="clust24" class="cluster">
<title>cluster_PhotoModule_providers</title>
<polygon fill="none" stroke="#000000" points="574,-78 574,-130 716,-130 716,-78 574,-78"/>
</g>
<!-- CatsModule -->
<g id="node1" class="node">
<title>CatsModule</title>
<polygon fill="#8dd3c7" stroke="#000000" points="140.4373,-190 137.4373,-194 116.4373,-194 113.4373,-190 55.5627,-190 55.5627,-154 140.4373,-154 140.4373,-190"/>
<text text-anchor="middle" x="98" y="-167.8" font-family="Times,serif" font-size="14.00" fill="#000000">CatsModule</text>
</g>
<!-- AppModule -->
<g id="node4" class="node">
<title>AppModule</title>
<polygon fill="#8dd3c7" stroke="#000000" points="139.6571,-255 136.6571,-259 115.6571,-259 112.6571,-255 56.3429,-255 56.3429,-219 139.6571,-219 139.6571,-255"/>
<text text-anchor="middle" x="98" y="-232.8" font-family="Times,serif" font-size="14.00" fill="#000000">AppModule</text>
</g>
<!-- CatsModule&#45;&gt;AppModule -->
<g id="edge1" class="edge">
<title>CatsModule&#45;&gt;AppModule</title>
<path fill="none" stroke="#000000" d="M98,-190.1061C98,-190.1061 98,-208.991 98,-208.991"/>
<polygon fill="#000000" stroke="#000000" points="94.5001,-208.9909 98,-218.991 101.5001,-208.991 94.5001,-208.9909"/>
</g>
<!-- HeroesModule -->
<g id="node2" class="node">
<title>HeroesModule</title>
<polygon fill="#8dd3c7" stroke="#000000" points="257.691,-190 254.691,-194 233.691,-194 230.691,-190 158.309,-190 158.309,-154 257.691,-154 257.691,-190"/>
<text text-anchor="middle" x="208" y="-167.8" font-family="Times,serif" font-size="14.00" fill="#000000">HeroesModule</text>
</g>
<!-- HeroesModule&#45;&gt;AppModule -->
<g id="edge2" class="edge">
<title>HeroesModule&#45;&gt;AppModule</title>
<path fill="none" stroke="#000000" d="M208,-190.027C208,-206.3976 208,-228 208,-228 208,-228 149.9001,-228 149.9001,-228"/>
<polygon fill="#000000" stroke="#000000" points="149.9001,-224.5001 139.9001,-228 149.9,-231.5001 149.9001,-224.5001"/>
</g>
<!-- PhotoModule -->
<g id="node3" class="node">
<title>PhotoModule</title>
<polygon fill="#8dd3c7" stroke="#000000" points="368.2233,-190 365.2233,-194 344.2233,-194 341.2233,-190 275.7767,-190 275.7767,-154 368.2233,-154 368.2233,-190"/>
<text text-anchor="middle" x="322" y="-167.8" font-family="Times,serif" font-size="14.00" fill="#000000">PhotoModule</text>
</g>
<!-- PhotoModule&#45;&gt;AppModule -->
<g id="edge3" class="edge">
<title>PhotoModule&#45;&gt;AppModule</title>
<path fill="none" stroke="#000000" d="M322,-190.2921C322,-212.2057 322,-246 322,-246 322,-246 149.8699,-246 149.8699,-246"/>
<polygon fill="#000000" stroke="#000000" points="149.87,-242.5001 139.8699,-246 149.8699,-249.5001 149.87,-242.5001"/>
</g>
<!-- AppService -->
<g id="node5" class="node">
<title>AppService</title>
<ellipse fill="#fdb462" stroke="#000000" cx="81" cy="-104" rx="56.7406" ry="18"/>
<text text-anchor="middle" x="81" y="-99.8" font-family="Times,serif" font-size="14.00" fill="#000000">AppService</text>
</g>
<!-- AppService&#45;&gt;AppModule -->
<g id="edge4" class="edge">
<title>AppService&#45;&gt;AppModule</title>
<path fill="none" stroke="#000000" d="M40.0809,-116.7526C40.0809,-150.0414 40.0809,-237 40.0809,-237 40.0809,-237 46.2146,-237 46.2146,-237"/>
<polygon fill="#000000" stroke="#000000" points="46.2146,-240.5001 56.2146,-237 46.2145,-233.5001 46.2146,-240.5001"/>
</g>
<!-- CatsService -->
<g id="node6" class="node">
<title>CatsService</title>
<ellipse fill="#fdb462" stroke="#000000" cx="213" cy="-104" rx="57.3166" ry="18"/>
<text text-anchor="middle" x="213" y="-99.8" font-family="Times,serif" font-size="14.00" fill="#000000">CatsService</text>
</g>
<!-- CatsService&#45;&gt;CatsModule -->
<g id="edge6" class="edge">
<title>CatsService&#45;&gt;CatsModule</title>
<path fill="none" stroke="#000000" d="M155.4829,-104C150.9208,-104 148.03,-104 148.03,-104 148.03,-104 148.03,-172 148.03,-172 148.03,-172 147.2918,-172 147.2918,-172"/>
<polygon fill="#000000" stroke="#000000" points="150.648,-168.5002 140.6479,-172 150.6479,-175.5002 150.648,-168.5002"/>
</g>
<!-- CatsService&#45;&gt;AppModule -->
<g id="edge5" class="edge">
<title>CatsService&#45;&gt;AppModule</title>
<path fill="none" stroke="#000000" d="M263.8767,-112.3197C263.8767,-141.4367 263.8767,-237 263.8767,-237 263.8767,-237 149.8577,-237 149.8577,-237"/>
<polygon fill="#000000" stroke="#000000" points="149.8577,-233.5001 139.8577,-237 149.8577,-240.5001 149.8577,-233.5001"/>
</g>
<!-- HeroesService -->
<g id="node7" class="node">
<title>HeroesService</title>
<ellipse fill="#fdb462" stroke="#000000" cx="475" cy="-104" rx="67.1715" ry="18"/>
<text text-anchor="middle" x="475" y="-99.8" font-family="Times,serif" font-size="14.00" fill="#000000">HeroesService</text>
</g>
<!-- HeroesService&#45;&gt;HeroesModule -->
<g id="edge7" class="edge">
<title>HeroesService&#45;&gt;HeroesModule</title>
<path fill="none" stroke="#000000" d="M475,-122.1944C475,-130.2782 475,-138 475,-138 475,-138 208,-138 208,-138 208,-138 208,-143.8056 208,-143.8056"/>
<polygon fill="#000000" stroke="#000000" points="204.5001,-143.8055 208,-153.8056 211.5001,-143.8056 204.5001,-143.8055"/>
</g>
<!-- PhotoService -->
<g id="node8" class="node">
<title>PhotoService</title>
<ellipse fill="#fdb462" stroke="#000000" cx="645" cy="-104" rx="62.5585" ry="18"/>
<text text-anchor="middle" x="645" y="-99.8" font-family="Times,serif" font-size="14.00" fill="#000000">PhotoService</text>
</g>
<!-- PhotoService&#45;&gt;PhotoModule -->
<g id="edge8" class="edge">
<title>PhotoService&#45;&gt;PhotoModule</title>
<path fill="none" stroke="#000000" d="M645,-122.2228C645,-142.3652 645,-172 645,-172 645,-172 378.278,-172 378.278,-172"/>
<polygon fill="#000000" stroke="#000000" points="378.2781,-168.5001 368.278,-172 378.278,-175.5001 378.2781,-168.5001"/>
</g>
</g>
</svg>
